<svg xmlns="http://www.w3.org/2000/svg" xmlns:xlink="http://www.w3.org/1999/xlink" viewBox="0 0 197.03 190.79"><defs><style>.cls-1{isolation:isolate;}.cls-2{mix-blend-mode:soft-light;opacity:0.7;}.cls-3{fill:#b00086;}.cls-4{fill:#ff0053;}.cls-5{fill:#e10079;}.cls-6{fill:#203b9f;}.cls-7{fill:#ffc800;}.cls-8{fill:#ff4e00;}.cls-9{fill:#ff27c2;}.cls-10{fill:url(#linear-gradient);}.cls-11{fill:url(#linear-gradient-2);}.cls-12{fill:url(#linear-gradient-3);}.cls-13{fill:url(#linear-gradient-4);}.cls-14{fill:url(#linear-gradient-5);}.cls-15{fill:url(#linear-gradient-6);}.cls-16{fill:url(#linear-gradient-7);}.cls-17{fill:url(#linear-gradient-8);}.cls-18{fill:url(#linear-gradient-9);}</style><linearGradient id="linear-gradient" x1="51.77" y1="109.15" x2="116.99" y2="109.15" gradientUnits="userSpaceOnUse"><stop offset="0" stop-color="#fe0047"/><stop offset="0.16" stop-color="#f50051"/><stop offset="0.43" stop-color="#dd006c"/><stop offset="0.78" stop-color="#b70098"/><stop offset="1" stop-color="#9b00b8"/></linearGradient><linearGradient id="linear-gradient-2" x1="77.38" y1="109.15" x2="91.37" y2="109.15" xlink:href="#linear-gradient"/><linearGradient id="linear-gradient-3" x1="65.59" y1="109.15" x2="103.17" y2="109.15" xlink:href="#linear-gradient"/><linearGradient id="linear-gradient-4" x1="112.92" y1="83.69" x2="155.17" y2="83.69" xlink:href="#linear-gradient"/><linearGradient id="linear-gradient-5" x1="129.52" y1="83.69" x2="138.58" y2="83.69" xlink:href="#linear-gradient"/><linearGradient id="linear-gradient-6" x1="121.88" y1="83.69" x2="146.22" y2="83.69" xlink:href="#linear-gradient"/><linearGradient id="linear-gradient-7" x1="118.59" y1="119.95" x2="145.69" y2="119.95" xlink:href="#linear-gradient"/><linearGradient id="linear-gradient-8" x1="129.23" y1="119.95" x2="135.05" y2="119.95" xlink:href="#linear-gradient"/><linearGradient id="linear-gradient-9" x1="124.34" y1="119.95" x2="139.95" y2="119.95" xlink:href="#linear-gradient"/></defs><g class="cls-1"><g id="Layer_2" data-name="Layer 2"><g id="Layer_1-2" data-name="Layer 1"><path class="cls-2" d="M117.7,112.24a1.68,1.68,0,0,0-1.08-.72l-2.78-.55a29.79,29.79,0,0,0,0-3.78l2.78-.56a1.7,1.7,0,0,0,1.33-2l-.87-4.3A1.7,1.7,0,0,0,115.41,99l-.34,0-2.77.56a31,31,0,0,0-1.46-3.49l2.35-1.58a1.63,1.63,0,0,0,.72-1.08,1.67,1.67,0,0,0-.25-1.27l-2.45-3.65a1.68,1.68,0,0,0-1.41-.75,1.71,1.71,0,0,0-1,.29l-2.35,1.58a30.7,30.7,0,0,0-2.68-2.67l1.57-2.36a1.69,1.69,0,0,0-.47-2.35l-3.66-2.44a1.73,1.73,0,0,0-.94-.28,1.67,1.67,0,0,0-1.41.76l-1.57,2.36a31.22,31.22,0,0,0-3.49-1.44l.54-2.78a1.67,1.67,0,0,0-1.34-2l-4.31-.85-.32,0a1.7,1.7,0,0,0-1.67,1.37l-.55,2.78c-.61,0-1.23-.06-1.84-.06s-1.3,0-1.93.07l-.56-2.78a1.71,1.71,0,0,0-1.67-1.37,1.24,1.24,0,0,0-.33,0l-4.31.86a1.7,1.7,0,0,0-1.33,2l.56,2.78a30.14,30.14,0,0,0-3.48,1.46l-1.58-2.36a1.71,1.71,0,0,0-1.42-.75,1.68,1.68,0,0,0-.94.29l-3.65,2.45a1.7,1.7,0,0,0-.46,2.35L64.84,87a30.58,30.58,0,0,0-2.66,2.68l-2.37-1.57a1.73,1.73,0,0,0-.94-.28,1.68,1.68,0,0,0-1.41.76L55,92.26a1.71,1.71,0,0,0,.47,2.36l2.36,1.57a32,32,0,0,0-1.44,3.49l-2.78-.55a1.84,1.84,0,0,0-.33,0,1.71,1.71,0,0,0-1.66,1.37l-.85,4.31a1.7,1.7,0,0,0,1.34,2l2.78.55a29.78,29.78,0,0,0,0,3.78l-2.78.56a1.7,1.7,0,0,0-1.33,2l.87,4.3a1.71,1.71,0,0,0,1.66,1.37,1.37,1.37,0,0,0,.34,0l2.77-.56a30.28,30.28,0,0,0,1.46,3.49l-2.35,1.58a1.7,1.7,0,0,0-.73,1.08,1.75,1.75,0,0,0,.26,1.28l2.45,3.64a1.7,1.7,0,0,0,1.41.75,1.68,1.68,0,0,0,.95-.28l2.35-1.58a29.26,29.26,0,0,0,2.68,2.66l-1.57,2.36a1.7,1.7,0,0,0,.47,2.36l3.66,2.43a1.73,1.73,0,0,0,.94.28,1.67,1.67,0,0,0,1.41-.76l1.57-2.36a29.44,29.44,0,0,0,3.49,1.44l-.54,2.79a1.7,1.7,0,0,0,1.34,2l4.3.84a1.24,1.24,0,0,0,.33,0A1.71,1.71,0,0,0,82,141.39l.54-2.78c.62,0,1.23,0,1.84,0s1.31,0,1.94-.06l.56,2.78a1.7,1.7,0,0,0,1.67,1.36l.33,0,4.31-.87a1.71,1.71,0,0,0,1.33-2L94,137.06a28.41,28.41,0,0,0,3.48-1.45L99,138a1.71,1.71,0,0,0,1.41.75,1.69,1.69,0,0,0,1-.29L105,136a1.7,1.7,0,0,0,.73-1.08,1.75,1.75,0,0,0-.26-1.28l-1.58-2.35a30.57,30.57,0,0,0,2.66-2.68l2.37,1.57a1.65,1.65,0,0,0,.94.28,1.71,1.71,0,0,0,1.41-.75l2.43-3.66a1.71,1.71,0,0,0-.47-2.36l-2.36-1.57a31.22,31.22,0,0,0,1.44-3.49l2.78.55a1.84,1.84,0,0,0,.33,0,1.7,1.7,0,0,0,1.66-1.37l.85-4.31A1.73,1.73,0,0,0,117.7,112.24ZM88.39,129.09a20.35,20.35,0,1,1,15.93-24A20.32,20.32,0,0,1,88.39,129.09Z"/><path class="cls-2" d="M84.38,101.15a8,8,0,1,0,8,8A8,8,0,0,0,84.38,101.15Z"/><path class="cls-2" d="M84.38,89.36a19.79,19.79,0,1,0,19.79,19.79A19.82,19.82,0,0,0,84.38,89.36Zm0,32.88a13.1,13.1,0,1,1,13.1-13.09A13.11,13.11,0,0,1,84.38,122.24Z"/><path class="cls-2" d="M155,84.88l-1.5-.29c0-.63,0-1.26,0-1.88l1.5-.3a1.45,1.45,0,0,0,1.14-1.71l-.56-2.79a1.46,1.46,0,0,0-1.42-1.16H154l-1.6.33c-.21-.59-.46-1.17-.72-1.74l1.26-.85a1.38,1.38,0,0,0,.62-.92,1.4,1.4,0,0,0-.22-1.09l-1.58-2.36a1.44,1.44,0,0,0-1.21-.65,1.46,1.46,0,0,0-.81.25l-1.27.85a18.41,18.41,0,0,0-1.33-1.32L148,68a1.46,1.46,0,0,0-.4-2l-2.37-1.57a1.46,1.46,0,0,0-.81-.25,1.48,1.48,0,0,0-1.21.65l-.84,1.28a18.75,18.75,0,0,0-1.74-.72l.3-1.5a1.45,1.45,0,0,0-.22-1.09,1.5,1.5,0,0,0-.93-.62l-2.79-.54-.18,0h-.1a1.45,1.45,0,0,0-1.42,1.17l-.3,1.5-.9,0c-.33,0-.66,0-1,0l-.3-1.5a1.47,1.47,0,0,0-1.43-1.17h-.19l-2.88.58a1.46,1.46,0,0,0-1.14,1.71l.3,1.5c-.58.21-1.16.45-1.73.72l-.85-1.27a1.47,1.47,0,0,0-2-.4L120.47,66a1.42,1.42,0,0,0-.61.92,1.47,1.47,0,0,0,.21,1.1l.86,1.26a18.53,18.53,0,0,0-1.32,1.34l-1.28-.85a1.43,1.43,0,0,0-2,.4l-1.58,2.37a1.44,1.44,0,0,0-.21,1.09,1.38,1.38,0,0,0,.62.92l1.27.85c-.26.57-.5,1.15-.71,1.74l-1.5-.3-.19,0h-.1A1.46,1.46,0,0,0,112.5,78L112,80.8a1.45,1.45,0,0,0,1.15,1.7l1.5.3c0,.63,0,1.25,0,1.87l-1.5.3a1.48,1.48,0,0,0-.92.62,1.46,1.46,0,0,0-.22,1.09l.57,2.79A1.45,1.45,0,0,0,114,90.64h.19l1.6-.32c.21.58.45,1.16.72,1.73l-1.27.85a1.45,1.45,0,0,0-.4,2l1.59,2.36a1.44,1.44,0,0,0,2,.39l1.27-.85c.42.46.87.9,1.33,1.32l-.85,1.28a1.45,1.45,0,0,0,.41,2l2.37,1.58a1.48,1.48,0,0,0,.8.24,1.44,1.44,0,0,0,1.21-.65l.85-1.27c.56.26,1.14.5,1.73.71l-.29,1.5a1.44,1.44,0,0,0,.21,1.09,1.5,1.5,0,0,0,.93.62l1.4.27-1.39.28a1.29,1.29,0,0,0-1,1.52l.14.66-.57.24-.38-.56a1.28,1.28,0,0,0-1.07-.57,1.3,1.3,0,0,0-.72.22l-1.51,1a1.24,1.24,0,0,0-.55.82,1.28,1.28,0,0,0,.19,1l.38.56c-.15.14-.29.29-.44.44l-.56-.38a1.31,1.31,0,0,0-1.79.36l-1,1.52a1.3,1.3,0,0,0,.36,1.79l.56.37c-.08.19-.16.38-.23.58l-.67-.14-.15,0h-.09a1.3,1.3,0,0,0-1.27,1l-.35,1.79a1.28,1.28,0,0,0,.19,1,1.3,1.3,0,0,0,.82.55l.67.13c0,.2,0,.41,0,.62l-.67.13a1.29,1.29,0,0,0-1,1.52l.36,1.78a1.28,1.28,0,0,0,1.26,1h.16l.76-.16a5.72,5.72,0,0,0,.24.57l-.56.38a1.29,1.29,0,0,0-.36,1.79l1,1.52a1.3,1.3,0,0,0,1.07.57,1.33,1.33,0,0,0,.72-.22l.56-.38.44.44-.38.57a1.29,1.29,0,0,0,.36,1.78l1.52,1a1.33,1.33,0,0,0,.72.22,1.29,1.29,0,0,0,1.07-.58l.38-.56.57.23-.13.67a1.29,1.29,0,0,0,1,1.51l1.79.35.16,0h.09a1.3,1.3,0,0,0,1.27-1l.13-.67h.62l.13.66a1.3,1.3,0,0,0,1.27,1H134l1.89-.38a1.28,1.28,0,0,0,1-1.51l-.13-.67q.28-.1.57-.24l.38.57a1.28,1.28,0,0,0,1.78.35l1.52-1a1.31,1.31,0,0,0,.55-.82,1.33,1.33,0,0,0-.2-1l-.38-.56.44-.44.57.38a1.29,1.29,0,0,0,1.78-.36l1-1.52a1.29,1.29,0,0,0-.36-1.79l-.56-.38.24-.57.66.13.15,0h.1a1.28,1.28,0,0,0,1.26-1l.35-1.79a1.27,1.27,0,0,0-.19-1,1.3,1.3,0,0,0-.82-.55l-.67-.13c0-.21,0-.41,0-.62l.67-.13a1.3,1.3,0,0,0,1-1.52l-.36-1.79a1.3,1.3,0,0,0-1.27-1h-.15l-.76.15-.24-.57.56-.38a1.3,1.3,0,0,0,.35-1.79l-1-1.51a1.29,1.29,0,0,0-1.79-.35l-.56.38c-.14-.15-.29-.3-.44-.44l.38-.56a1.3,1.3,0,0,0,.19-1,1.29,1.29,0,0,0-.55-.81l-1.52-1a1.28,1.28,0,0,0-1.79.36l-.37.56-.58-.23.13-.67a1.26,1.26,0,0,0-.19-1,1.24,1.24,0,0,0-.82-.55l-1.8-.36-.14,0h-.1a1.3,1.3,0,0,0-1.27,1l-.13.66h-.62l-.13-.67a1.23,1.23,0,0,0-.35-.63h.11a1.47,1.47,0,0,0,1.43-1.17l.29-1.5.9,0,1,0,.3,1.5a1.45,1.45,0,0,0,1.42,1.16h.19l2.89-.58a1.41,1.41,0,0,0,.92-.62,1.44,1.44,0,0,0,.21-1.09l-.3-1.5a17.5,17.5,0,0,0,1.73-.72l.86,1.27a1.46,1.46,0,0,0,2,.4l2.36-1.59a1.44,1.44,0,0,0,.4-2l-.85-1.27c.46-.43.9-.87,1.32-1.33l1.27.84a1.45,1.45,0,0,0,2-.4l1.57-2.37a1.46,1.46,0,0,0-.4-2L151.67,92c.27-.57.51-1.15.72-1.73l1.5.29.18,0h.1a1.46,1.46,0,0,0,1.42-1.17l.55-2.79A1.46,1.46,0,0,0,155,84.88Zm-29.09-1.19a8.14,8.14,0,1,1,8.14,8.13A8.15,8.15,0,0,1,125.91,83.69ZM137,120a4.86,4.86,0,1,1-4.86-4.86A4.86,4.86,0,0,1,137,120Z"/><path class="cls-2" d="M139.58,83.69a5.53,5.53,0,1,0-5.53,5.53A5.54,5.54,0,0,0,139.58,83.69Z"/><path class="cls-2" d="M128.23,120a3.91,3.91,0,1,0,3.91-3.91A3.91,3.91,0,0,0,128.23,120Z"/><path class="cls-3" d="M22.27,111.87h0a1.46,1.46,0,0,1-1.47-1.42h0A1.46,1.46,0,0,1,22.22,109h0a1.44,1.44,0,0,1,1.47,1.42h0A1.45,1.45,0,0,1,22.27,111.87Z"/><path class="cls-4" d="M31.19,79.33h0A5.57,5.57,0,0,1,26.46,73h0a5.57,5.57,0,0,1,6.31-4.73h0A5.57,5.57,0,0,1,37.5,74.6h0A5.57,5.57,0,0,1,31.19,79.33Z"/><path class="cls-5" d="M53.9,18.11h0a2.23,2.23,0,0,1-1.8-2.6h0a2.24,2.24,0,0,1,2.6-1.8h0a2.24,2.24,0,0,1,1.8,2.6h0A2.24,2.24,0,0,1,53.9,18.11Z"/><path class="cls-6" d="M37.93,55.24h0A5.73,5.73,0,0,1,31.75,50h0A5.72,5.72,0,0,1,37,43.84h0a5.72,5.72,0,0,1,6.18,5.22h0A5.73,5.73,0,0,1,37.93,55.24Z"/><path class="cls-3" d="M1.61,76.2h0A2,2,0,0,1,.05,73.76h0A2,2,0,0,1,2.49,72.2h0a2,2,0,0,1,1.56,2.44h0A2.05,2.05,0,0,1,1.61,76.2Z"/><path class="cls-3" d="M25.19,90.59h0a1.94,1.94,0,0,1-2.06-1.81h0a1.94,1.94,0,0,1,1.81-2.06h0A1.94,1.94,0,0,1,27,88.53h0A1.94,1.94,0,0,1,25.19,90.59Z"/><path class="cls-7" d="M38.29,53.67h0a4,4,0,0,1-4.13-3.93h0a4,4,0,0,1,3.93-4.13h0a4,4,0,0,1,4.13,3.93h0A4,4,0,0,1,38.29,53.67Z"/><path class="cls-5" d="M70.77,46.86h0a12,12,0,0,1-14.92-8.09h0A12,12,0,0,1,64,23.85h0a12,12,0,0,1,14.92,8.09h0A12,12,0,0,1,70.77,46.86Z"/><path class="cls-6" d="M128.52,182.87h0a2,2,0,0,1-1-2.65h0a2,2,0,0,1,2.65-1h0a2,2,0,0,1,1,2.65h0A2,2,0,0,1,128.52,182.87Z"/><path class="cls-6" d="M45.73,187.12h0a5.8,5.8,0,0,1-5.12-6.42h0A5.81,5.81,0,0,1,47,175.58h0A5.81,5.81,0,0,1,52.15,182h0A5.81,5.81,0,0,1,45.73,187.12Z"/><path class="cls-3" d="M33.07,188.62h0a10.68,10.68,0,0,1-8.9-12.19h0a10.68,10.68,0,0,1,12.2-8.9h0a10.68,10.68,0,0,1,8.9,12.19h0A10.67,10.67,0,0,1,33.07,188.62Z"/><path class="cls-7" d="M5.51,133.88h0A1.39,1.39,0,0,1,4,132.65H4a1.38,1.38,0,0,1,1.23-1.52h0a1.38,1.38,0,0,1,1.52,1.23h0A1.38,1.38,0,0,1,5.51,133.88Z"/><path class="cls-4" d="M33,153.87h0a4.12,4.12,0,0,1-4.21-4.05h0a4.13,4.13,0,0,1,4.05-4.21h0a4.14,4.14,0,0,1,4.21,4h0A4.13,4.13,0,0,1,33,153.87Z"/><path class="cls-8" d="M10.62,106.36h0a1.73,1.73,0,0,1-1.77-1.69h0a1.73,1.73,0,0,1,1.7-1.77h0a1.73,1.73,0,0,1,1.77,1.69h0A1.73,1.73,0,0,1,10.62,106.36Z"/><path class="cls-5" d="M37.76,72.46h0a2.68,2.68,0,0,1-3.19-2h0a2.68,2.68,0,0,1,2.06-3.18h0a2.67,2.67,0,0,1,3.18,2h0A2.67,2.67,0,0,1,37.76,72.46Z"/><path class="cls-5" d="M35,147.2h0a2.11,2.11,0,0,1-1.54-2.55h0A2.11,2.11,0,0,1,36,143.12h0a2.1,2.1,0,0,1,1.53,2.55h0A2.1,2.1,0,0,1,35,147.2Z"/><path class="cls-7" d="M90.54,184.44h0a3.3,3.3,0,0,1-3.62-2.94h0a3.3,3.3,0,0,1,2.94-3.61h0a3.28,3.28,0,0,1,3.61,2.94h0A3.29,3.29,0,0,1,90.54,184.44Z"/><path class="cls-8" d="M93.36,5.22h0a2.61,2.61,0,0,1-2.59-2.63h0A2.61,2.61,0,0,1,93.4,0h0A2.61,2.61,0,0,1,96,2.63h0A2.61,2.61,0,0,1,93.36,5.22Z"/><path class="cls-7" d="M181.5,109.32h0a6.11,6.11,0,0,1,6.11,6.11v0a5.06,5.06,0,0,1-5.06,5.06h0a6.11,6.11,0,0,1-6.11-6.11v0a5.06,5.06,0,0,1,5.06-5.06Z"/><path class="cls-5" d="M189.07,102.12h0a6.6,6.6,0,0,1-5.7-7.4h0a6.6,6.6,0,0,1,7.4-5.7h0a6.6,6.6,0,0,1,5.7,7.4h0A6.6,6.6,0,0,1,189.07,102.12Z"/><path class="cls-7" d="M181.87,61.61h0a2.65,2.65,0,0,1-3.17-2h0a2.65,2.65,0,0,1,2-3.17h0a2.65,2.65,0,0,1,3.16,2h0A2.64,2.64,0,0,1,181.87,61.61Z"/><path class="cls-4" d="M91.58,190.64h0a3.2,3.2,0,0,1-4-2.09h0a3.21,3.21,0,0,1,2.09-4h0a3.2,3.2,0,0,1,4,2.09h0A3.19,3.19,0,0,1,91.58,190.64Z"/><path class="cls-6" d="M169.31,49.78h0a3.32,3.32,0,0,1-2.3-4.1h0a3.32,3.32,0,0,1,4.1-2.3h0a3.32,3.32,0,0,1,2.3,4.1h0A3.32,3.32,0,0,1,169.31,49.78Z"/><path class="cls-5" d="M147.22,26.81h0a2.59,2.59,0,0,1-2.86-2.32h0a2.6,2.6,0,0,1,2.32-2.86h0A2.59,2.59,0,0,1,149.54,24h0A2.59,2.59,0,0,1,147.22,26.81Z"/><path class="cls-6" d="M191,73.34h0a4.58,4.58,0,0,1-5.83-2.82h0A4.58,4.58,0,0,1,188,64.69h0a4.57,4.57,0,0,1,5.83,2.82h0A4.58,4.58,0,0,1,191,73.34Z"/><path class="cls-7" d="M144.2,25.5h0a5.41,5.41,0,0,1-5.64-5.19h0a5.42,5.42,0,0,1,5.2-5.64h0a5.43,5.43,0,0,1,5.64,5.2h0A5.42,5.42,0,0,1,144.2,25.5Z"/><path class="cls-8" d="M175.66,38.14h0a2.64,2.64,0,0,1-2.86-2.4h0a2.64,2.64,0,0,1,2.39-2.86h0a2.64,2.64,0,0,1,2.86,2.39h0A2.64,2.64,0,0,1,175.66,38.14Z"/><path class="cls-4" d="M132.71,47.46h0A4.86,4.86,0,0,1,126.77,44h0A4.88,4.88,0,0,1,130.26,38h0a4.88,4.88,0,0,1,6,3.5h0A4.86,4.86,0,0,1,132.71,47.46Z"/><path class="cls-8" d="M168,171.71h0a2.73,2.73,0,0,1-3-2.49h0a2.73,2.73,0,0,1,2.49-2.95h0a2.72,2.72,0,0,1,2.95,2.48h0A2.73,2.73,0,0,1,168,171.71Z"/><path class="cls-7" d="M153,161.9h0a1.48,1.48,0,0,1-1.5-1.46h0a1.49,1.49,0,0,1,1.46-1.51h0a1.49,1.49,0,0,1,1.5,1.47h0A1.48,1.48,0,0,1,153,161.9Z"/><path class="cls-5" d="M137.57,176.82h0a2.85,2.85,0,0,1-3.24-2.39h0a2.85,2.85,0,0,1,2.39-3.24h0a2.85,2.85,0,0,1,3.24,2.39h0A2.86,2.86,0,0,1,137.57,176.82Z"/><path class="cls-6" d="M93.57,25.57h0a7.38,7.38,0,0,1-9.73-3.78h0a7.38,7.38,0,0,1,3.78-9.73h0a7.38,7.38,0,0,1,9.73,3.78h0A7.38,7.38,0,0,1,93.57,25.57Z"/><path class="cls-3" d="M159.89,45.3h0a3.58,3.58,0,0,1-3.36-3.78h0a3.59,3.59,0,0,1,3.79-3.36h0A3.58,3.58,0,0,1,163.67,42h0A3.57,3.57,0,0,1,159.89,45.3Z"/><path class="cls-3" d="M161.63,139.2h0a6.07,6.07,0,0,1-5.21-6.83h0a6.08,6.08,0,0,1,6.83-5.22h0a6.08,6.08,0,0,1,5.21,6.83h0A6.08,6.08,0,0,1,161.63,139.2Z"/><path class="cls-4" d="M189.5,124.81h0a7.12,7.12,0,0,1-6.69-7.52h0a7.12,7.12,0,0,1,7.52-6.69h0a7.12,7.12,0,0,1,6.69,7.52h0A7.12,7.12,0,0,1,189.5,124.81Z"/><path class="cls-8" d="M186,110.22h0a2.35,2.35,0,0,1-2.51-2.19h0a2.35,2.35,0,0,1,2.18-2.51h0a2.35,2.35,0,0,1,2.51,2.19h0A2.36,2.36,0,0,1,186,110.22Z"/><path class="cls-9" d="M164.51,58.74h0a1.58,1.58,0,0,1,1.59,1.57h0a1.59,1.59,0,0,1-1.58,1.6h0a1.59,1.59,0,0,1-1.59-1.58h0A1.57,1.57,0,0,1,164.51,58.74Z"/><path class="cls-9" d="M134.4,173.78h0a1.82,1.82,0,0,1,2.26,1.25h0a1.82,1.82,0,0,1-1.25,2.26h0a1.82,1.82,0,0,1-2.26-1.25h0A1.82,1.82,0,0,1,134.4,173.78Z"/><path class="cls-9" d="M135.76,16.72h0a2.37,2.37,0,0,1,2.79,1.85h0a2.36,2.36,0,0,1-1.84,2.79h0a2.37,2.37,0,0,1-2.8-1.85h0A2.37,2.37,0,0,1,135.76,16.72Z"/><path class="cls-9" d="M80.65,183.16h0a3.41,3.41,0,0,1,4.44,1.91h0a3.42,3.42,0,0,1-1.9,4.44h0a3.42,3.42,0,0,1-4.45-1.91h0A3.42,3.42,0,0,1,80.65,183.16Z"/><path class="cls-9" d="M16.9,77.79h0a4,4,0,0,1,4.88,2.95h0a4,4,0,0,1-3,4.88h0a4,4,0,0,1-4.89-3h0A4,4,0,0,1,16.9,77.79Z"/><path class="cls-9" d="M37.24,154.73h0a2.89,2.89,0,0,1,3,2.73h0a2.89,2.89,0,0,1-2.72,3h0a2.89,2.89,0,0,1-3-2.72h0A2.89,2.89,0,0,1,37.24,154.73Z"/><path class="cls-9" d="M56.24,21h0a7.81,7.81,0,0,1,5.61,9.5h0a7.8,7.8,0,0,1-9.49,5.61h0a7.8,7.8,0,0,1-5.61-9.49h0A7.8,7.8,0,0,1,56.24,21Z"/><path class="cls-10" d="M116.43,112.5l-3-.58a.81.81,0,0,1-.63-.83,28.26,28.26,0,0,0,0-4,.81.81,0,0,1,.62-.83l3-.6a.7.7,0,0,0,.55-.82l-.87-4.3a.7.7,0,0,0-.82-.55l-3,.6a.8.8,0,0,1-.89-.53,28.66,28.66,0,0,0-1.54-3.69.79.79,0,0,1,.25-1l2.52-1.69a.7.7,0,0,0,.19-1l-2.45-3.64a.69.69,0,0,0-1-.19l-2.51,1.68a.8.8,0,0,1-1-.14A28,28,0,0,0,103,87.58a.81.81,0,0,1-.15-1L104.56,84a.7.7,0,0,0-.19-1l-3.66-2.43a.69.69,0,0,0-1,.19l-1.68,2.53a.8.8,0,0,1-1,.26,27.71,27.71,0,0,0-3.7-1.53.8.8,0,0,1-.53-.9l.58-3a.69.69,0,0,0-.55-.82l-4.31-.85a.69.69,0,0,0-.82.55l-.58,3a.82.82,0,0,1-.83.63,28.11,28.11,0,0,0-4,0,.82.82,0,0,1-.84-.63l-.59-3a.7.7,0,0,0-.82-.54l-4.31.86a.71.71,0,0,0-.55.83l.6,3a.8.8,0,0,1-.53.9,28.66,28.66,0,0,0-3.69,1.54.81.81,0,0,1-1-.26l-1.69-2.51a.68.68,0,0,0-1-.19l-3.65,2.45a.69.69,0,0,0-.19,1l1.69,2.52a.81.81,0,0,1-.15,1,29.08,29.08,0,0,0-2.82,2.84.8.8,0,0,1-1,.14L59.26,89a.7.7,0,0,0-1,.19l-2.43,3.66a.69.69,0,0,0,.19,1l2.53,1.68a.81.81,0,0,1,.26,1,30,30,0,0,0-1.53,3.7.8.8,0,0,1-.89.53l-3-.58a.69.69,0,0,0-.82.55l-.85,4.3a.7.7,0,0,0,.55.82l3,.59a.79.79,0,0,1,.63.83,28.12,28.12,0,0,0,0,4,.8.8,0,0,1-.62.83l-3,.6a.69.69,0,0,0-.55.82l.87,4.31a.69.69,0,0,0,.82.54l3-.59a.79.79,0,0,1,.89.52,29.4,29.4,0,0,0,1.54,3.7.78.78,0,0,1-.25,1l-2.52,1.69a.7.7,0,0,0-.19,1l2.45,3.65a.7.7,0,0,0,1,.19l2.51-1.69a.81.81,0,0,1,1,.14,28,28,0,0,0,2.84,2.82.81.81,0,0,1,.15,1l-1.68,2.53a.69.69,0,0,0,.19,1l3.66,2.44a.71.71,0,0,0,1-.2L70.7,135a.8.8,0,0,1,1-.27,27.71,27.71,0,0,0,3.7,1.53.8.8,0,0,1,.53.9l-.58,3a.69.69,0,0,0,.55.82l4.31.84a.69.69,0,0,0,.82-.55l.58-3a.8.8,0,0,1,.83-.62,29.67,29.67,0,0,0,4,0,.8.8,0,0,1,.84.62l.59,3a.71.71,0,0,0,.82.55l4.31-.87a.69.69,0,0,0,.54-.82l-.59-3a.8.8,0,0,1,.52-.9,28.8,28.8,0,0,0,3.7-1.54.81.81,0,0,1,1,.26l1.68,2.51a.7.7,0,0,0,1,.19l3.65-2.44a.7.7,0,0,0,.19-1L103,131.67a.83.83,0,0,1,.15-1A30.13,30.13,0,0,0,106,127.8a.8.8,0,0,1,1-.15l2.52,1.68a.71.71,0,0,0,1-.2l2.43-3.65a.69.69,0,0,0-.2-1l-2.52-1.68a.81.81,0,0,1-.26-1,29.84,29.84,0,0,0,1.53-3.69.79.79,0,0,1,.89-.53l3,.58a.7.7,0,0,0,.82-.55l.85-4.31A.7.7,0,0,0,116.43,112.5ZM88.59,130.07a21.34,21.34,0,1,1,16.71-25.13A21.34,21.34,0,0,1,88.59,130.07Z"/><path class="cls-11" d="M84.38,102.15a7,7,0,1,0,7,7A7,7,0,0,0,84.38,102.15Z"/><path class="cls-12" d="M84.38,90.36a18.79,18.79,0,1,0,18.79,18.79A18.79,18.79,0,0,0,84.38,90.36Zm0,32.88a14.1,14.1,0,1,1,14.1-14.09A14.09,14.09,0,0,1,84.38,123.24Z"/><path class="cls-13" d="M154.8,85.86l-1.92-.38a.52.52,0,0,1-.41-.53,18.8,18.8,0,0,0,0-2.6.51.51,0,0,1,.4-.53l1.92-.39a.45.45,0,0,0,.36-.53l-.56-2.79a.46.46,0,0,0-.53-.36l-1.93.39a.52.52,0,0,1-.58-.34,17.44,17.44,0,0,0-1-2.39.53.53,0,0,1,.17-.66l1.63-1.09a.45.45,0,0,0,.12-.63l-1.58-2.36a.46.46,0,0,0-.63-.12l-1.63,1.09a.51.51,0,0,1-.66-.09,19.86,19.86,0,0,0-1.84-1.83.51.51,0,0,1-.1-.66l1.09-1.64a.45.45,0,0,0-.13-.63l-2.37-1.57a.45.45,0,0,0-.62.12L142.91,67a.52.52,0,0,1-.65.17,18.06,18.06,0,0,0-2.4-1,.53.53,0,0,1-.34-.58l.38-1.92a.45.45,0,0,0-.36-.53l-2.79-.55a.45.45,0,0,0-.53.35l-.38,1.93a.52.52,0,0,1-.54.4,20.36,20.36,0,0,0-2.59,0,.52.52,0,0,1-.54-.4l-.39-1.93a.44.44,0,0,0-.53-.35l-2.79.56a.45.45,0,0,0-.35.53l.39,1.92a.53.53,0,0,1-.34.59,18.06,18.06,0,0,0-2.4,1,.51.51,0,0,1-.65-.16L124,65.39a.45.45,0,0,0-.63-.12L121,66.85a.46.46,0,0,0-.13.63L122,69.1a.53.53,0,0,1-.09.67,17.66,17.66,0,0,0-1.83,1.84.53.53,0,0,1-.67.1l-1.63-1.09a.45.45,0,0,0-.63.13l-1.58,2.36a.46.46,0,0,0,.13.63l1.64,1.09a.53.53,0,0,1,.17.65,16.81,16.81,0,0,0-1,2.4.53.53,0,0,1-.58.34L114,77.84a.45.45,0,0,0-.53.36L112.93,81a.45.45,0,0,0,.36.53l1.92.38a.52.52,0,0,1,.41.53,17.36,17.36,0,0,0,0,2.6.53.53,0,0,1-.41.54L113.3,86a.46.46,0,0,0-.36.54l.57,2.78a.45.45,0,0,0,.53.36l1.92-.39a.52.52,0,0,1,.58.34,18.78,18.78,0,0,0,1,2.39.53.53,0,0,1-.17.66l-1.63,1.09a.46.46,0,0,0-.12.63l1.59,2.36a.44.44,0,0,0,.62.12l1.63-1.09a.53.53,0,0,1,.67.09A16.73,16.73,0,0,0,122,97.66a.52.52,0,0,1,.09.67L121,100a.45.45,0,0,0,.12.63l2.37,1.57a.45.45,0,0,0,.63-.12l1.08-1.64a.53.53,0,0,1,.66-.17,17.18,17.18,0,0,0,2.39,1,.52.52,0,0,1,.34.58l-.37,1.93a.45.45,0,0,0,.35.53l2.79.55a.46.46,0,0,0,.53-.36l.38-1.93a.52.52,0,0,1,.54-.4,17.23,17.23,0,0,0,2.59,0,.52.52,0,0,1,.54.41l.39,1.92a.45.45,0,0,0,.53.35l2.79-.56a.45.45,0,0,0,.35-.53l-.38-1.92a.51.51,0,0,1,.34-.58,18.78,18.78,0,0,0,2.39-1,.52.52,0,0,1,.65.17l1.1,1.62a.44.44,0,0,0,.62.13l2.37-1.59a.46.46,0,0,0,.12-.63l-1.09-1.62a.52.52,0,0,1,.09-.67A19.86,19.86,0,0,0,148,95.77a.51.51,0,0,1,.66-.09l1.64,1.08a.45.45,0,0,0,.62-.12l1.58-2.37a.45.45,0,0,0-.13-.63l-1.63-1.09a.51.51,0,0,1-.17-.65,20,20,0,0,0,1-2.39.53.53,0,0,1,.58-.35l1.92.38a.45.45,0,0,0,.53-.36l.55-2.79A.45.45,0,0,0,154.8,85.86Zm-18,11.38A13.82,13.82,0,1,1,147.6,81,13.81,13.81,0,0,1,136.77,97.24Z"/><path class="cls-14" d="M134.05,79.16a4.53,4.53,0,1,0,4.53,4.53A4.53,4.53,0,0,0,134.05,79.16Z"/><path class="cls-15" d="M134.05,71.52a12.17,12.17,0,1,0,12.17,12.17A12.17,12.17,0,0,0,134.05,71.52Zm0,21.3a9.13,9.13,0,1,1,9.13-9.13A9.14,9.14,0,0,1,134.05,92.82Z"/><path class="cls-16" d="M145.46,121.34l-1.24-.24a.34.34,0,0,1-.26-.35,11.5,11.5,0,0,0,0-1.66.33.33,0,0,1,.26-.34l1.23-.25a.29.29,0,0,0,.23-.34l-.36-1.79a.29.29,0,0,0-.34-.23l-1.24.25a.34.34,0,0,1-.37-.22,12.19,12.19,0,0,0-.64-1.54.32.32,0,0,1,.11-.41l1-.7a.3.3,0,0,0,.08-.41l-1-1.51a.29.29,0,0,0-.4-.08l-1,.7a.34.34,0,0,1-.43-.06,11.84,11.84,0,0,0-1.18-1.17.34.34,0,0,1-.06-.43l.7-1a.3.3,0,0,0-.08-.4l-1.52-1a.3.3,0,0,0-.41.08l-.69,1a.34.34,0,0,1-.42.11,12.19,12.19,0,0,0-1.54-.64.33.33,0,0,1-.22-.37l.24-1.23a.29.29,0,0,0-.22-.34l-1.79-.35a.3.3,0,0,0-.35.22l-.24,1.24a.33.33,0,0,1-.34.26,11.64,11.64,0,0,0-1.67,0,.33.33,0,0,1-.34-.26l-.25-1.23a.29.29,0,0,0-.34-.23l-1.79.36a.29.29,0,0,0-.23.34l.25,1.24a.34.34,0,0,1-.22.37,11.47,11.47,0,0,0-1.53.64.33.33,0,0,1-.42-.11l-.7-1a.29.29,0,0,0-.4-.08l-1.52,1a.29.29,0,0,0-.08.4l.7,1a.34.34,0,0,1-.06.43,11.84,11.84,0,0,0-1.17,1.18.33.33,0,0,1-.43.06l-1-.7a.3.3,0,0,0-.41.09l-1,1.51a.3.3,0,0,0,.08.41l1,.69a.33.33,0,0,1,.11.42,10.82,10.82,0,0,0-.63,1.54.34.34,0,0,1-.38.22l-1.23-.24a.29.29,0,0,0-.34.23l-.35,1.78a.3.3,0,0,0,.23.35l1.23.24a.33.33,0,0,1,.26.34,11.64,11.64,0,0,0,0,1.67.33.33,0,0,1-.26.34l-1.24.25a.28.28,0,0,0-.22.34l.36,1.79a.29.29,0,0,0,.34.23l1.23-.25a.33.33,0,0,1,.37.22,13,13,0,0,0,.64,1.53.33.33,0,0,1-.1.42l-1,.7a.29.29,0,0,0-.08.4l1,1.52a.29.29,0,0,0,.4.08l1.05-.7a.32.32,0,0,1,.42.06,11.84,11.84,0,0,0,1.18,1.17.33.33,0,0,1,.06.43l-.69,1a.29.29,0,0,0,.08.41l1.52,1a.29.29,0,0,0,.4-.08l.7-1.05a.32.32,0,0,1,.41-.11,10.82,10.82,0,0,0,1.54.63.34.34,0,0,1,.22.38l-.24,1.23a.29.29,0,0,0,.23.34l1.79.35a.29.29,0,0,0,.34-.23L131,132a.34.34,0,0,1,.35-.26,10.24,10.24,0,0,0,1.66,0,.33.33,0,0,1,.34.26l.25,1.24a.29.29,0,0,0,.34.22l1.79-.36a.29.29,0,0,0,.23-.34l-.25-1.23a.33.33,0,0,1,.22-.37,13.87,13.87,0,0,0,1.54-.64.31.31,0,0,1,.41.1l.7,1.05a.3.3,0,0,0,.41.08l1.51-1a.29.29,0,0,0,.08-.4l-.7-1a.32.32,0,0,1,.06-.42,11.84,11.84,0,0,0,1.17-1.18.34.34,0,0,1,.43-.06l1.05.69a.28.28,0,0,0,.4-.08l1-1.52a.29.29,0,0,0-.08-.4l-1-.7a.33.33,0,0,1-.11-.41,12.19,12.19,0,0,0,.64-1.54.33.33,0,0,1,.37-.22l1.23.24a.29.29,0,0,0,.34-.23l.35-1.79A.28.28,0,0,0,145.46,121.34Zm-11.57,7.3a8.86,8.86,0,1,1,6.94-10.44A8.86,8.86,0,0,1,133.89,128.64Z"/><path class="cls-17" d="M132.14,117a2.91,2.91,0,1,0,2.91,2.91A2.91,2.91,0,0,0,132.14,117Z"/><path class="cls-18" d="M132.14,112.14A7.81,7.81,0,1,0,140,120,7.81,7.81,0,0,0,132.14,112.14Zm0,13.67A5.86,5.86,0,1,1,138,120,5.87,5.87,0,0,1,132.14,125.81Z"/></g></g></g></svg>